# xmcd
#
# Track frame offsets: 
#        150
#        22126
#        47631
#        66940
#        88609
#        101816
#        123950
#        136170
#        158118
#        175396
#        197512
#
# Disc length: 2886 seconds
#
# Revision: 0
# Processed by: cddbd v1.5.2PL0 Copyright (c) Steve Scherf et al.
# Submitted via: ExactAudioCopy v1.3
#
DISCID=940b440b
DTITLE=Tim Grimm - Holding Up The World
DYEAR=1900
DGENRE=Blues
TTITLE0=Holding Up The World
TTITLE1=The Girl
TTITLE2=Krista
TTITLE3=Rebecca Versailles
TTITLE4=Or Bust
TTITLE5=So It Goes
TTITLE6=Long Way Around
TTITLE7=This Hole
TTITLE8=Heart So Full
TTITLE9=Blowin'In The Wind
TTITLE10=Squaw
EXTD=
EXTT0=
EXTT1=
EXTT2=
EXTT3=
EXTT4=
EXTT5=
EXTT6=
EXTT7=
EXTT8=
EXTT9=
EXTT10=
PLAYORDER=
